<svg xmlns="http://www.w3.org/2000/svg" width="34" height="34" viewBox="0 0 34 34">
  <metadata><?xpacket begin="﻿" id="W5M0MpCehiHzreSzNTczkc9d"?>
<x:xmpmeta xmlns:x="adobe:ns:meta/" x:xmptk="Adobe XMP Core 5.6-c138 79.159824, 2016/09/14-01:09:01        ">
   <rdf:RDF xmlns:rdf="http://www.w3.org/1999/02/22-rdf-syntax-ns#">
      <rdf:Description rdf:about=""/>
   </rdf:RDF>
</x:xmpmeta>
                                                                                                    
                                                                                                    
                                                                                                    
                                                                                                    
                                                                                                    
                                                                                                    
                                                                                                    
                                                                                                    
                                                                                                    
                                                                                                    
                                                                                                    
                                                                                                    
                                                                                                    
                                                                                                    
                                                                                                    
                                                                                                    
                                                                                                    
                                                                                                    
                                                                                                    
                                                                                                    
                           
<?xpacket end="w"?></metadata>
<defs>
    <style>
      .cls-1 {
        fill: #fff;
        fill-rule: evenodd;
      }
    </style>
  </defs>
  <path id="Rectángulo_redondeado_1" data-name="Rectángulo redondeado 1" class="cls-1" d="M27,32H7a5,5,0,0,1-5-5V7A5,5,0,0,1,7,2H27a5,5,0,0,1,5,5V27A5,5,0,0,1,27,32ZM30,7.333C30,4.94,29.06,4,26.667,4H7.333C4.94,4,4,4.94,4,7.333V26.667C4,29.06,4.94,30,7.333,30H26.667C29.06,30,30,29.06,30,26.667V7.333ZM17,26c-1.4,0-7-5.742-7-10.967a7,7,0,1,1,14,0C24,20.257,18.4,26,17,26Zm0-14a3,3,0,1,0,3,3A3,3,0,0,0,17,12Z"/>
</svg>
