<svg xmlns="http://www.w3.org/2000/svg" width="32" height="32" viewBox="0 0 32 32">
  <metadata><?xpacket begin="﻿" id="W5M0MpCehiHzreSzNTczkc9d"?>
<x:xmpmeta xmlns:x="adobe:ns:meta/" x:xmptk="Adobe XMP Core 5.6-c138 79.159824, 2016/09/14-01:09:01        ">
   <rdf:RDF xmlns:rdf="http://www.w3.org/1999/02/22-rdf-syntax-ns#">
      <rdf:Description rdf:about=""/>
   </rdf:RDF>
</x:xmpmeta>
                                                                                                    
                                                                                                    
                                                                                                    
                                                                                                    
                                                                                                    
                                                                                                    
                                                                                                    
                                                                                                    
                                                                                                    
                                                                                                    
                                                                                                    
                                                                                                    
                                                                                                    
                                                                                                    
                                                                                                    
                                                                                                    
                                                                                                    
                                                                                                    
                                                                                                    
                                                                                                    
                           
<?xpacket end="w"?></metadata>
<defs>
    <style>
      .cls-1 {
        fill: #afa7a1;
        fill-rule: evenodd;
      }
    </style>
  </defs>
  <path id="ig" class="cls-1" d="M15.728,30.379A14.481,14.481,0,0,1,1.46,15.7,14.48,14.48,0,0,1,15.728,1.012,14.48,14.48,0,0,1,30,15.7,14.481,14.481,0,0,1,15.728,30.379Zm7.575-17.8a4.688,4.688,0,0,0-1.242-3.337,4.4,4.4,0,0,0-3.261-1.3H12.4a4.327,4.327,0,0,0-4.5,4.634v6.546A4.693,4.693,0,0,0,9.2,22.54,4.468,4.468,0,0,0,12.44,23.8h6.325a4.486,4.486,0,0,0,3.269-1.254,4.662,4.662,0,0,0,1.269-3.38V12.581Zm-4.538,9.758H12.44a3.1,3.1,0,0,1-2.255-.845,3.251,3.251,0,0,1-.866-2.366V12.581a3.247,3.247,0,0,1,.83-2.329A3.06,3.06,0,0,1,12.4,9.406h6.4a3.039,3.039,0,0,1,2.255.866,3.242,3.242,0,0,1,.83,2.309v6.583a3.222,3.222,0,0,1-.842,2.336A3.124,3.124,0,0,1,18.765,22.338ZM15.6,11.749a4.08,4.08,0,1,0,3.963,4.078A4.026,4.026,0,0,0,15.6,11.749Zm4.112-1.026a0.926,0.926,0,1,0,.9.926A0.913,0.913,0,0,0,19.714,10.724ZM15.6,18.446a2.62,2.62,0,1,1,2.545-2.619A2.586,2.586,0,0,1,15.6,18.446Z"/>
</svg>
