<svg xmlns="http://www.w3.org/2000/svg" width="34" height="34" viewBox="0 0 34 34">
  <metadata><?xpacket begin="﻿" id="W5M0MpCehiHzreSzNTczkc9d"?>
<x:xmpmeta xmlns:x="adobe:ns:meta/" x:xmptk="Adobe XMP Core 5.6-c138 79.159824, 2016/09/14-01:09:01        ">
   <rdf:RDF xmlns:rdf="http://www.w3.org/1999/02/22-rdf-syntax-ns#">
      <rdf:Description rdf:about=""/>
   </rdf:RDF>
</x:xmpmeta>
                                                                                                    
                                                                                                    
                                                                                                    
                                                                                                    
                                                                                                    
                                                                                                    
                                                                                                    
                                                                                                    
                                                                                                    
                                                                                                    
                                                                                                    
                                                                                                    
                                                                                                    
                                                                                                    
                                                                                                    
                                                                                                    
                                                                                                    
                                                                                                    
                                                                                                    
                                                                                                    
                           
<?xpacket end="w"?></metadata>
<defs>
    <style>
      .cls-1 {
        fill: #ca4d00;
        fill-rule: evenodd;
      }
    </style>
  </defs>
  <path id="Rectángulo_redondeado_1" data-name="Rectángulo redondeado 1" class="cls-1" d="M27,32H7a5,5,0,0,1-5-5V7A5,5,0,0,1,7,2H27a5,5,0,0,1,5,5V27A5,5,0,0,1,27,32ZM30,7.333C30,4.94,29.06,4,26.667,4H7.333C4.94,4,4,4.94,4,7.333V26.667C4,29.06,4.94,30,7.333,30H26.667C29.06,30,30,29.06,30,26.667V7.333ZM24.2,25.4a2.378,2.378,0,0,1-1.429.588,2.089,2.089,0,0,1-1.12-.233,23.559,23.559,0,0,1-10.146-7.769,21.976,21.976,0,0,1-3.152-5.7c-0.419-1.149-.44-1.648-0.1-2.236A6.605,6.605,0,0,1,9.5,8.844a4.3,4.3,0,0,1,1.4-.836,1.622,1.622,0,0,1,.743.068,2,2,0,0,1,.357.177,14.347,14.347,0,0,1,2.65,3.37,1.874,1.874,0,0,1,.3,1.306A2.138,2.138,0,0,1,14,14.008a5.274,5.274,0,0,0-.588.523,1.373,1.373,0,0,0-.193.668,4.945,4.945,0,0,0,.746,2.077,8.9,8.9,0,0,0,1.491,1.746A8.226,8.226,0,0,0,17.413,20.4a2.181,2.181,0,0,0,1.791.36,1.442,1.442,0,0,0,.235-0.13c0.03-.027.258-0.3,0.508-0.611a1.8,1.8,0,0,1,.921-0.812,1.6,1.6,0,0,1,1.277.115c0.327,0.168,1.04.609,1.5,0.927a22.115,22.115,0,0,1,2.077,1.684,1.337,1.337,0,0,1,.154,1.4A6.556,6.556,0,0,1,24.2,25.4Z"/>
</svg>
