<svg xmlns="http://www.w3.org/2000/svg" width="34" height="34" viewBox="0 0 34 34">
  <metadata><?xpacket begin="﻿" id="W5M0MpCehiHzreSzNTczkc9d"?>
<x:xmpmeta xmlns:x="adobe:ns:meta/" x:xmptk="Adobe XMP Core 5.6-c138 79.159824, 2016/09/14-01:09:01        ">
   <rdf:RDF xmlns:rdf="http://www.w3.org/1999/02/22-rdf-syntax-ns#">
      <rdf:Description rdf:about=""/>
   </rdf:RDF>
</x:xmpmeta>
                                                                                                    
                                                                                                    
                                                                                                    
                                                                                                    
                                                                                                    
                                                                                                    
                                                                                                    
                                                                                                    
                                                                                                    
                                                                                                    
                                                                                                    
                                                                                                    
                                                                                                    
                                                                                                    
                                                                                                    
                                                                                                    
                                                                                                    
                                                                                                    
                                                                                                    
                                                                                                    
                           
<?xpacket end="w"?></metadata>
<defs>
    <style>
      .cls-1 {
        fill: #fff;
        fill-rule: evenodd;
      }
    </style>
  </defs>
  <path id="Rectángulo_redondeado_1" data-name="Rectángulo redondeado 1" class="cls-1" d="M27,32H7a5,5,0,0,1-5-5V7A5,5,0,0,1,7,2H27a5,5,0,0,1,5,5V27A5,5,0,0,1,27,32ZM30,7.333C30,4.94,29.06,4,26.667,4H7.333C4.94,4,4,4.94,4,7.333V26.667C4,29.06,4.94,30,7.333,30H26.667C29.06,30,30,29.06,30,26.667V7.333Zm-6.5,11.26H18.594V23.5a1.5,1.5,0,0,1-1.5,1.5H16.906a1.5,1.5,0,0,1-1.5-1.5V18.594H10.5a1.5,1.5,0,0,1-1.5-1.5V16.906a1.5,1.5,0,0,1,1.5-1.5h4.906V10.5a1.5,1.5,0,0,1,1.5-1.5h0.188a1.5,1.5,0,0,1,1.5,1.5v4.906H23.5a1.5,1.5,0,0,1,1.5,1.5v0.188A1.5,1.5,0,0,1,23.5,18.594Z"/>
</svg>
