<svg xmlns="http://www.w3.org/2000/svg" width="32" height="32" viewBox="0 0 32 32">
  <metadata><?xpacket begin="﻿" id="W5M0MpCehiHzreSzNTczkc9d"?>
<x:xmpmeta xmlns:x="adobe:ns:meta/" x:xmptk="Adobe XMP Core 5.6-c138 79.159824, 2016/09/14-01:09:01        ">
   <rdf:RDF xmlns:rdf="http://www.w3.org/1999/02/22-rdf-syntax-ns#">
      <rdf:Description rdf:about=""/>
   </rdf:RDF>
</x:xmpmeta>
                                                                                                    
                                                                                                    
                                                                                                    
                                                                                                    
                                                                                                    
                                                                                                    
                                                                                                    
                                                                                                    
                                                                                                    
                                                                                                    
                                                                                                    
                                                                                                    
                                                                                                    
                                                                                                    
                                                                                                    
                                                                                                    
                                                                                                    
                                                                                                    
                                                                                                    
                                                                                                    
                           
<?xpacket end="w"?></metadata>
<defs>
    <style>
      .cls-1 {
        fill: #8a7e74;
        fill-rule: evenodd;
      }
    </style>
  </defs>
  <path id="tw" class="cls-1" d="M16.5,1.614A14.483,14.483,0,0,0,2.235,16.3,14.481,14.481,0,0,0,16.5,30.993,14.48,14.48,0,0,0,30.765,16.3,14.482,14.482,0,0,0,16.5,1.614Zm7.186,11.728c0.007,0.159.01,0.319,0.01,0.479,0,4.892-3.616,10.533-10.228,10.533a9.963,9.963,0,0,1-5.511-1.663,7.1,7.1,0,0,0,5.322-1.533,3.614,3.614,0,0,1-3.358-2.571,3.447,3.447,0,0,0,.676.066,3.5,3.5,0,0,0,.947-0.13,3.679,3.679,0,0,1-2.884-3.63c0-.016,0-0.031,0-0.047a3.508,3.508,0,0,0,1.628.464,3.78,3.78,0,0,1-1.113-4.943,10.11,10.11,0,0,0,7.41,3.867,3.814,3.814,0,0,1-.093-0.843,3.65,3.65,0,0,1,3.595-3.7,3.543,3.543,0,0,1,2.624,1.169A7.062,7.062,0,0,0,25,9.961a3.693,3.693,0,0,1-1.581,2.048,7.038,7.038,0,0,0,2.065-.583A7.425,7.425,0,0,1,23.687,13.342Z"/>
</svg>
