<svg xmlns="http://www.w3.org/2000/svg" width="1976" height="657" viewBox="0 0 1976 657">
  <metadata><?xpacket begin="﻿" id="W5M0MpCehiHzreSzNTczkc9d"?>
<x:xmpmeta xmlns:x="adobe:ns:meta/" x:xmptk="Adobe XMP Core 5.6-c138 79.159824, 2016/09/14-01:09:01        ">
   <rdf:RDF xmlns:rdf="http://www.w3.org/1999/02/22-rdf-syntax-ns#">
      <rdf:Description rdf:about=""/>
   </rdf:RDF>
</x:xmpmeta>
                                                                                                    
                                                                                                    
                                                                                                    
                                                                                                    
                                                                                                    
                                                                                                    
                                                                                                    
                                                                                                    
                                                                                                    
                                                                                                    
                                                                                                    
                                                                                                    
                                                                                                    
                                                                                                    
                                                                                                    
                                                                                                    
                                                                                                    
                                                                                                    
                                                                                                    
                                                                                                    
                           
<?xpacket end="w"?></metadata>
<defs>
    <style>
      .cls-1 {
        fill: #7b6d62;
      }

      .cls-1, .cls-2 {
        fill-rule: evenodd;
      }

      .cls-2 {
        fill: #958a81;
      }
    </style>
  </defs>
  <path id="LOG" class="cls-1" d="M1850,544h-90.5c-119.02,0-215.5-96.483-215.5-215.5S1640.48,113,1759.5,113H1843v0.239A20.849,20.849,0,0,1,1867,134v40a20.849,20.849,0,0,1-24,20.761V195h-83a134,134,0,0,0,0,268h103.37A30.627,30.627,0,0,0,1894,432.371V411h0V369h-41v-0.013a40.49,40.49,0,0,1,0-80.974V288h81v0.013c0.17,0,.33-0.013.5-0.013a40.5,40.5,0,0,1,40.5,40.5c0,0.168-.01.333-0.01,0.5H1975v82h0v8A125,125,0,0,1,1850,544Zm-567.5,0c-119.02,0-215.5-96.483-215.5-215.5S1163.48,113,1282.5,113,1498,209.483,1498,328.5,1401.52,544,1282.5,544Zm0-351A135.5,135.5,0,1,0,1418,328.5,135.5,135.5,0,0,0,1282.5,193Zm-247,351c-0.5,0-1-.02-1.5-0.038V544H878A125,125,0,0,1,753,419V134a21,21,0,0,1,21-21h40a21,21,0,0,1,21,21V423a40,40,0,0,0,40,40h159v0.038c0.5-.018,1-0.038,1.5-0.038A40.5,40.5,0,0,1,1035.5,544Z"/>
  <path id="Abajo" class="cls-2" d="M606.511,353.281H625a30,30,0,0,1,30,30V625a30,30,0,0,1-30,30H383.281a30,30,0,0,1-30-30V554C446.054,553.841,574.335,476.609,606.511,353.281ZM123.126,391.244c28.9,94.515,100.348,144.442,180.593,158.528V625a30,30,0,0,1-30,30H32A30,30,0,0,1,2,625V383.281a30,30,0,0,1,30-30h83.145A216.359,216.359,0,0,0,123.126,391.244Z"/>
  <path id="Arriba_Izquierda" data-name="Arriba Izquierda" class="cls-2" d="M265.77,122.81C181.52,148.567,124.635,221.431,115.1,303.719H32a30,30,0,0,1-30-30V32A30,30,0,0,1,32,2H273.718a30,30,0,0,1,30,30v82.836A215.877,215.877,0,0,0,265.77,122.81Z"/>
  <path id="Arriba_e" data-name="Arriba e" class="cls-2" d="M587.819,254.224c-0.032,1.019-.063,2.038-0.1,3.062q-0.1,2.466-.238,4.9c-0.014.254-.028,0.509-0.043,0.763C572.469,515.839,263.82,517.219,216.2,404.615l-0.1.03-0.091-.3a0.083,0.083,0,0,0-.008-0.012h0l-0.2-.645,326.329-99.769A215.226,215.226,0,0,0,353,114.779v-106C481.632,30.9,588,115.612,588,244c0,2.216-.031,4.448-0.077,6.688C587.9,251.875,587.856,253.048,587.819,254.224Zm-145.708-1.99-248.94,76.108A136.243,136.243,0,0,1,442.111,252.234Z"/>
</svg>
